<svg enable-background="new 0 0 512 512" viewBox="0 0 512 512" xmlns="http://www.w3.org/2000/svg"><g fill="#32bd8d"><path d="m183.3 102c-2.1 6-4.7 12.2-7.7 18.5l151.6 74.8c1.9-6.7 4.5-12.9 7.8-18.5z"/><path d="m328.8 245.5-152.8 80.3c3.5 5.5 6.2 11.6 8.2 18.3l152.2-80c-2.9-6.4-5.6-12.6-7.6-18.6z"/><path d="m188.2 78.1c0-47.4-29.6-78.1-75.5-78.1s-75.4 30.7-75.4 78.1c0 39.6 59.5 118.9 66.3 127.8l9.2 12.2 9.3-12.2c4.8-6.3 35.7-47.7 53.6-85.4 3-6.3 5.6-12.6 7.7-18.5 2.9-8.8 4.8-17 4.8-23.9zm-75.5 25c-13.5 0-24.4-10.9-24.4-24.4s10.9-24.4 24.4-24.4 24.4 10.9 24.4 24.4-10.9 24.4-24.4 24.4z"/></g><circle cx="112.7" cy="78.6" fill="#fff" r="24.4"/><path d="m390 349.3 9.2 12.2 9.3-12.2c6.7-8.9 66.2-88.3 66.2-127.8 0-47.4-29.6-78.1-75.5-78.1-29.1 0-51.7 12.4-64.3 33.6-3.3 5.6-5.9 11.7-7.8 18.5-2.2 8-3.4 16.7-3.4 26.1 0 7 1.9 15.2 5 24.1 2.1 6 4.7 12.2 7.7 18.5 17.9 37.5 48.8 78.8 53.6 85.1zm9.2-151.8c13.5 0 24.4 10.9 24.4 24.4s-10.9 24.4-24.4 24.4-24.4-10.9-24.4-24.4 10.9-24.4 24.4-24.4z" fill="#32bd8d"/><circle cx="399.2" cy="222" fill="#fff" r="24.4"/><path d="m112.7 293.9c-45.9 0-75.5 30.7-75.5 78.1 0 39.6 59.5 118.9 66.3 127.8l9.2 12.2 9.3-12.2c6.7-8.9 66.2-88.3 66.2-127.8 0-10.1-1.4-19.5-4-27.9-2-6.7-4.8-12.8-8.2-18.3-12.8-20.2-34.9-31.9-63.3-31.9zm24.4 78.6c0 13.5-10.9 24.4-24.4 24.4s-24.5-10.9-24.5-24.4 10.9-24.4 24.4-24.4 24.5 10.9 24.5 24.4z" fill="#32bd8d"/><circle cx="112.7" cy="372.5" fill="#fff" r="24.4"/></svg>